<svg width="404" height="253" viewBox="0 0 404 253" fill="none" xmlns="http://www.w3.org/2000/svg">
<g clip-path="url(#clip0_31_914)">
<path d="M385.251 253H43.7866C40.75 253 37.8378 251.798 35.6906 249.659C33.5434 247.519 32.3372 244.617 32.3372 241.592C156.118 227.257 277.572 227.257 396.7 241.592C396.7 244.617 395.494 247.519 393.347 249.659C391.199 251.798 388.287 253 385.251 253Z" fill="#CCCCCC"/>
<path d="M396.7 242.263L32.3372 241.592L74.5655 170.792L74.7676 170.456V14.4217C74.7674 12.5277 75.1417 10.6523 75.869 8.90255C76.5963 7.15276 77.6624 5.56287 79.0064 4.22366C80.3504 2.88445 81.946 1.82217 83.7021 1.09747C85.4582 0.372765 87.3403 -0.000158209 89.2411 5.035e-08H337.776C339.676 -0.000158209 341.558 0.372765 343.315 1.09747C345.071 1.82217 346.666 2.88445 348.01 4.22366C349.354 5.56287 350.42 7.15276 351.148 8.90255C351.875 10.6523 352.249 12.5277 352.249 14.4217V171.53L396.7 242.263Z" fill="#E6E6E6"/>
<path d="M88.911 10.0663C87.6611 10.0677 86.4627 10.5631 85.5789 11.4438C84.6951 12.3245 84.1979 13.5185 84.1965 14.764V157.035C84.198 158.28 84.6952 159.474 85.579 160.355C86.4628 161.235 87.6611 161.731 88.911 161.732H340.126C341.376 161.731 342.574 161.235 343.458 160.355C344.342 159.474 344.839 158.28 344.841 157.035V14.764C344.839 13.5185 344.342 12.3245 343.458 11.4438C342.574 10.5632 341.376 10.0678 340.126 10.0663H88.911Z" fill="white"/>
<path d="M90.562 180.523C90.1758 180.523 89.7977 180.634 89.4725 180.842C89.1473 181.049 88.8884 181.345 88.7263 181.694L75.7144 209.88C75.5728 210.187 75.5108 210.524 75.5343 210.861C75.5577 211.198 75.6658 211.523 75.8486 211.808C76.0314 212.092 76.283 212.326 76.5802 212.488C76.8775 212.65 77.2109 212.735 77.5498 212.735H351.183C351.527 212.735 351.866 212.647 352.167 212.48C352.467 212.313 352.72 212.072 352.901 211.78C353.082 211.488 353.186 211.155 353.201 210.812C353.216 210.469 353.144 210.128 352.989 209.821L338.846 181.635C338.679 181.3 338.421 181.018 338.102 180.822C337.783 180.625 337.415 180.522 337.039 180.523L90.562 180.523Z" fill="#CCCCCC"/>
<path d="M213.508 7.71752C215.182 7.71752 216.539 6.36547 216.539 4.69763C216.539 3.02979 215.182 1.67773 213.508 1.67773C211.834 1.67773 210.478 3.02979 210.478 4.69763C210.478 6.36547 211.834 7.71752 213.508 7.71752Z" fill="white"/>
<path d="M186.612 218.103C186.168 218.104 185.737 218.25 185.384 218.519C185.032 218.789 184.778 219.166 184.662 219.593L181.398 231.673C181.317 231.971 181.306 232.284 181.367 232.587C181.427 232.89 181.556 233.176 181.745 233.421C181.933 233.666 182.176 233.865 182.454 234.002C182.732 234.138 183.038 234.21 183.348 234.21H245.421C245.743 234.21 246.06 234.133 246.346 233.986C246.633 233.839 246.879 233.625 247.066 233.364C247.253 233.102 247.374 232.8 247.42 232.483C247.466 232.165 247.435 231.841 247.329 231.538L243.133 219.458C242.995 219.063 242.738 218.72 242.395 218.477C242.053 218.234 241.644 218.104 241.224 218.103H186.612Z" fill="#CCCCCC"/>
<path d="M352.249 168.107V170.792H74.5656L74.7743 170.456V168.107H352.249Z" fill="#CCCCCC"/>
<path d="M317.974 174.257C317.866 174.257 317.761 174.292 317.675 174.358C317.589 174.423 317.528 174.515 317.499 174.619L316.705 177.561C316.685 177.634 316.682 177.71 316.697 177.784C316.712 177.857 316.743 177.927 316.789 177.987C316.835 178.046 316.894 178.095 316.962 178.128C317.03 178.161 317.104 178.179 317.18 178.179H332.295C332.374 178.179 332.451 178.16 332.521 178.124C332.59 178.088 332.65 178.036 332.696 177.973C332.741 177.909 332.771 177.835 332.782 177.758C332.793 177.681 332.786 177.602 332.76 177.528L331.738 174.586C331.705 174.49 331.642 174.407 331.558 174.347C331.475 174.288 331.375 174.257 331.273 174.257H317.974Z" fill="#CCCCCC"/>
<path d="M295.904 174.257C295.796 174.257 295.691 174.292 295.605 174.358C295.519 174.423 295.457 174.515 295.429 174.619L294.634 177.561C294.614 177.634 294.612 177.71 294.627 177.784C294.641 177.857 294.673 177.927 294.719 177.987C294.765 178.046 294.824 178.095 294.891 178.128C294.959 178.161 295.034 178.179 295.109 178.179H310.225C310.303 178.179 310.38 178.16 310.45 178.124C310.52 178.088 310.58 178.036 310.625 177.973C310.671 177.909 310.7 177.835 310.712 177.758C310.723 177.681 310.715 177.602 310.689 177.528L309.668 174.586C309.634 174.49 309.571 174.407 309.488 174.347C309.405 174.288 309.305 174.257 309.203 174.257H295.904Z" fill="#CCCCCC"/>
<path d="M231.961 192.947H233.146L230.777 35.164H229.592L229.639 38.3118H203.087L203.134 35.164H201.95L199.58 192.947H200.765L200.919 182.717H231.808L231.961 192.947ZM230.254 79.2331H202.473L202.762 59.9529H229.964L230.254 79.2331ZM230.271 80.4136L230.561 99.6938H202.165L202.455 80.4136H230.271ZM230.579 100.874L230.868 120.154H201.858L202.148 100.874H230.579ZM230.886 121.335L231.175 140.615H201.551L201.84 121.335H230.886ZM231.193 141.796L231.483 161.076H201.244L201.533 141.796H231.193ZM229.657 39.4922L229.946 58.7725H202.78L203.069 39.4922H229.657ZM200.936 181.536L201.226 162.256H231.5L231.79 181.536H200.936Z" fill="#064663"/>
<path d="M210.494 89.5097C221.163 89.5097 229.812 80.892 229.812 70.2616C229.812 59.6311 221.163 51.0134 210.494 51.0134C199.826 51.0134 191.177 59.6311 191.177 70.2616C191.177 80.892 199.826 89.5097 210.494 89.5097Z" fill="#064663"/>
<path d="M221.857 83.5637L216.082 84.6053L217.955 94.9146L223.73 93.873L221.857 83.5637Z" fill="#064663"/>
<path d="M210.308 85.647L204.533 86.6886L206.406 96.9979L212.181 95.9562L210.308 85.647Z" fill="#064663"/>
<path d="M209.472 99.1674C211.533 97.4282 212.673 95.3939 212.018 94.6237C211.364 93.8536 209.162 94.6392 207.101 96.3785C205.04 98.1178 203.9 100.152 204.554 100.922C205.209 101.692 207.41 100.907 209.472 99.1674Z" fill="#064663"/>
<path d="M220.78 97.1276C222.841 95.3883 223.982 93.354 223.327 92.5838C222.673 91.8137 220.471 92.5993 218.41 94.3386C216.349 96.0779 215.209 98.1122 215.863 98.8823C216.518 99.6525 218.719 98.8668 220.78 97.1276Z" fill="#064663"/>
<path d="M209.142 72.1318C212.788 72.1318 215.744 69.1865 215.744 65.5533C215.744 61.9201 212.788 58.9749 209.142 58.9749C205.496 58.9749 202.54 61.9201 202.54 65.5533C202.54 69.1865 205.496 72.1318 209.142 72.1318Z" fill="white"/>
<path d="M206.429 65.3882C207.644 65.3882 208.629 64.4064 208.629 63.1953C208.629 61.9843 207.644 61.0025 206.429 61.0025C205.213 61.0025 204.228 61.9843 204.228 63.1953C204.228 64.4064 205.213 65.3882 206.429 65.3882Z" fill="#064663"/>
<path d="M225.733 49.3217C226.024 42.1957 219.86 36.16 211.966 35.8405C204.073 35.521 197.438 41.0387 197.147 48.1647C196.857 55.2906 202.344 56.9097 210.238 57.2292C218.132 57.5487 225.443 56.4476 225.733 49.3217Z" fill="#ECB365"/>
<path d="M202.072 68.9051C202.446 67.2787 198.535 64.9975 193.335 63.8099C188.136 62.6224 183.617 62.9782 183.243 64.6046C182.869 66.2311 186.781 68.5123 191.98 69.6998C197.18 70.8873 201.698 70.5315 202.072 68.9051Z" fill="#064663"/>
<path d="M239.991 75.1885C240.365 73.562 236.454 71.2809 231.254 70.0933C226.055 68.9058 221.536 69.2616 221.162 70.888C220.788 72.5145 224.7 74.7956 229.899 75.9832C235.099 77.1707 239.617 76.8149 239.991 75.1885Z" fill="#064663"/>
<path d="M215.8 77.8471C215.904 78.4139 215.895 78.9956 215.773 79.559C215.652 80.1223 215.42 80.6562 215.091 81.1302C214.762 81.6042 214.343 82.009 213.857 82.3214C213.371 82.6338 212.828 82.8477 212.259 82.9509C211.69 83.0541 211.106 83.0446 210.541 82.9229C209.975 82.8011 209.44 82.5696 208.964 82.2415C208.489 81.9134 208.083 81.4952 207.77 81.0107C207.457 80.5262 207.243 79.985 207.139 79.418L207.138 79.4095C206.705 77.0261 208.554 76.1827 210.946 75.7513C213.338 75.3198 215.367 75.4637 215.8 77.8471Z" fill="white"/>
<path d="M145.067 135.636C147.02 130.546 147.303 125.925 145.699 125.314C144.096 124.704 141.213 128.334 139.261 133.424C137.308 138.514 137.025 143.135 138.629 143.745C140.233 144.356 143.115 140.725 145.067 135.636Z" fill="#064663"/>
<path d="M143.407 152.591C145.159 141.834 137.828 131.699 127.033 129.953C116.237 128.208 106.066 135.513 104.314 146.269C102.562 157.026 109.893 167.161 120.689 168.907C131.484 170.652 141.656 163.347 143.407 152.591Z" fill="#064663"/>
<path d="M120.853 164.915H114.837V175.655H120.853V164.915Z" fill="#064663"/>
<path d="M132.885 164.915H126.869V175.655H132.885V164.915Z" fill="#064663"/>
<path d="M119.85 177.653C122.619 177.653 124.863 176.815 124.863 175.78C124.863 174.746 122.619 173.907 119.85 173.907C117.081 173.907 114.837 174.746 114.837 175.78C114.837 176.815 117.081 177.653 119.85 177.653Z" fill="#064663"/>
<path d="M131.882 177.404C134.651 177.404 136.895 176.565 136.895 175.53C136.895 174.496 134.651 173.657 131.882 173.657C129.113 173.657 126.869 174.496 126.869 175.53C126.869 176.565 129.113 177.404 131.882 177.404Z" fill="#064663"/>
<path d="M104.652 131.08C103.053 123.945 108.164 116.735 116.068 114.977C123.972 113.218 131.676 117.577 133.275 124.712C134.873 131.847 129.635 134.479 121.731 136.237C113.827 137.996 106.251 138.215 104.652 131.08Z" fill="#ECB365"/>
<path d="M110.503 144.502C111.238 142.957 107.829 139.811 102.889 137.476C97.9478 135.141 93.3462 134.501 92.6106 136.047C91.8749 137.592 95.2838 140.738 100.225 143.073C105.165 145.408 109.767 146.048 110.503 144.502Z" fill="#064663"/>
<path d="M38.1178 189.14C49.0544 189.14 57.9203 180.306 57.9203 169.409C57.9203 158.511 49.0544 149.677 38.1178 149.677C27.1813 149.677 18.3154 158.511 18.3154 169.409C18.3154 180.306 27.1813 189.14 38.1178 189.14Z" fill="#064663"/>
<path d="M35.1099 184.894H29.094V195.634H35.1099V184.894Z" fill="#064663"/>
<path d="M47.1418 184.894H41.1259V195.634H47.1418V184.894Z" fill="#064663"/>
<path d="M34.1073 197.632C36.876 197.632 39.1206 196.794 39.1206 195.759C39.1206 194.725 36.876 193.886 34.1073 193.886C31.3385 193.886 29.094 194.725 29.094 195.759C29.094 196.794 31.3385 197.632 34.1073 197.632Z" fill="#064663"/>
<path d="M46.1391 197.383C48.9079 197.383 51.1524 196.544 51.1524 195.509C51.1524 194.475 48.9079 193.636 46.1391 193.636C43.3704 193.636 41.1259 194.475 41.1259 195.509C41.1259 196.544 43.3704 197.383 46.1391 197.383Z" fill="#064663"/>
<path d="M38.6192 171.157C42.357 171.157 45.3871 168.138 45.3871 164.414C45.3871 160.689 42.357 157.67 38.6192 157.67C34.8814 157.67 31.8513 160.689 31.8513 164.414C31.8513 168.138 34.8814 171.157 38.6192 171.157Z" fill="white"/>
<path d="M38.6193 166.661C39.8652 166.661 40.8752 165.655 40.8752 164.414C40.8752 163.172 39.8652 162.166 38.6193 162.166C37.3733 162.166 36.3633 163.172 36.3633 164.414C36.3633 165.655 37.3733 166.661 38.6193 166.661Z" fill="#064663"/>
<path d="M18.9088 151.059C17.3099 143.924 22.4211 136.714 30.3251 134.956C38.229 133.197 45.9327 137.556 47.5316 144.691C49.1306 151.826 43.8923 154.458 35.9884 156.216C28.0844 157.975 20.5078 158.194 18.9088 151.059Z" fill="#E6E6E6"/>
<path d="M52.5567 98.9177C54.5091 93.8281 54.7918 89.2071 53.1883 88.5964C51.5848 87.9857 48.7022 91.6165 46.7499 96.7061C44.7975 101.796 44.5148 106.417 46.1183 107.027C47.7218 107.638 50.6044 104.007 52.5567 98.9177Z" fill="#064663"/>
<path d="M50.8967 115.873C52.6485 105.116 45.3173 94.9809 34.5219 93.2353C23.7266 91.4897 13.5551 98.7947 11.8032 109.551C10.0514 120.308 17.3826 130.443 28.1779 132.189C38.9733 133.934 49.1448 126.629 50.8967 115.873Z" fill="#064663"/>
<path d="M28.342 128.198H22.326V138.937H28.342V128.198Z" fill="#064663"/>
<path d="M40.3738 128.198H34.3579V138.937H40.3738V128.198Z" fill="#064663"/>
<path d="M27.3393 140.936C30.1081 140.936 32.3526 140.097 32.3526 139.062C32.3526 138.028 30.1081 137.189 27.3393 137.189C24.5706 137.189 22.326 138.028 22.326 139.062C22.326 140.097 24.5706 140.936 27.3393 140.936Z" fill="#064663"/>
<path d="M39.3712 140.686C42.1399 140.686 44.3845 139.847 44.3845 138.813C44.3845 137.778 42.1399 136.939 39.3712 136.939C36.6024 136.939 34.3579 137.778 34.3579 138.813C34.3579 139.847 36.6024 140.686 39.3712 140.686Z" fill="#064663"/>
<path d="M31.8513 114.46C35.5891 114.46 38.6192 111.441 38.6192 107.717C38.6192 103.992 35.5891 100.973 31.8513 100.973C28.1135 100.973 25.0834 103.992 25.0834 107.717C25.0834 111.441 28.1135 114.46 31.8513 114.46Z" fill="white"/>
<path d="M31.8513 109.965C33.0973 109.965 34.1073 108.958 34.1073 107.717C34.1073 106.475 33.0973 105.469 31.8513 105.469C30.6054 105.469 29.5953 106.475 29.5953 107.717C29.5953 108.958 30.6054 109.965 31.8513 109.965Z" fill="#064663"/>
<path d="M12.141 94.3622C10.5421 87.227 15.6533 80.0172 23.5572 78.2586C31.4612 76.5 39.1648 80.8587 40.7638 87.9939C42.3627 95.1291 37.1245 97.7607 29.2205 99.5193C21.3166 101.278 13.74 101.497 12.141 94.3622Z" fill="#ECB365"/>
<path d="M17.9919 107.784C18.7275 106.239 15.3186 103.093 10.3778 100.758C5.43709 98.4232 0.835455 97.7833 0.0998155 99.3288C-0.635824 100.874 2.7731 104.02 7.71385 106.355C12.6546 108.69 17.2562 109.33 17.9919 107.784Z" fill="#064663"/>
<path d="M21.623 119.83C21.623 121.762 26.6134 125.575 32.1509 125.575C37.6884 125.575 42.8804 120.138 42.8804 118.207C42.8804 116.276 37.6884 118.582 32.1509 118.582C26.6134 118.582 21.623 117.899 21.623 119.83Z" fill="white"/>
<path d="M50.819 37.3711C50.4533 37.3715 50.1026 37.5164 49.844 37.7741C49.5854 38.0318 49.44 38.3812 49.4396 38.7456V95.5568C49.44 95.9212 49.5854 96.2706 49.844 96.5283C50.1026 96.7859 50.4533 96.9309 50.819 96.9313H182.782C183.148 96.9309 183.498 96.7859 183.757 96.5283C184.016 96.2706 184.161 95.9212 184.161 95.5568V38.7456C184.161 38.3812 184.016 38.0318 183.757 37.7741C183.498 37.5164 183.148 37.3715 182.782 37.3711H50.819Z" fill="#ECB365"/>
<path d="M86.451 80.4932C93.846 80.4932 99.8409 74.5198 99.8409 67.1512C99.8409 59.7826 93.846 53.8092 86.451 53.8092C79.0559 53.8092 73.061 59.7826 73.061 67.1512C73.061 74.5198 79.0559 80.4932 86.451 80.4932Z" fill="white"/>
<path d="M116.672 65.3761C116.261 65.3828 115.869 65.5501 115.581 65.8419C115.293 66.1337 115.132 66.5267 115.132 66.936C115.132 67.3453 115.293 67.7383 115.581 68.0301C115.869 68.3219 116.261 68.4892 116.672 68.4959H158.948C159.154 68.4995 159.358 68.4626 159.55 68.3874C159.741 68.3121 159.916 68.2001 160.064 68.0576C160.212 67.9151 160.33 67.745 160.412 67.5569C160.494 67.3689 160.537 67.1666 160.541 66.9616C160.544 66.7567 160.507 66.5531 160.431 66.3624C160.356 66.1718 160.243 65.9979 160.1 65.8507C159.957 65.7034 159.786 65.5857 159.597 65.5043C159.409 65.4228 159.205 65.3793 159 65.3761C158.983 65.3758 158.965 65.3758 158.948 65.3761H116.672Z" fill="white"/>
<path d="M116.672 56.3379C116.261 56.3447 115.869 56.512 115.581 56.8038C115.293 57.0956 115.132 57.4885 115.132 57.8979C115.132 58.3072 115.293 58.7001 115.581 58.992C115.869 59.2838 116.261 59.4511 116.672 59.4578H137.784C137.989 59.4613 138.194 59.4244 138.385 59.3492C138.576 59.274 138.751 59.162 138.899 59.0195C139.047 58.877 139.165 58.7069 139.247 58.5188C139.329 58.3307 139.373 58.1285 139.376 57.9235C139.38 57.7185 139.342 57.5149 139.267 57.3243C139.191 57.1337 139.078 56.9597 138.935 56.8125C138.792 56.6652 138.621 56.5475 138.433 56.4661C138.244 56.3847 138.041 56.3411 137.835 56.3379C137.818 56.3376 137.801 56.3376 137.784 56.3379H116.672Z" fill="white"/>
<path d="M116.672 74.8446C116.261 74.8513 115.869 75.0186 115.581 75.3104C115.293 75.6023 115.132 75.9952 115.132 76.4045C115.132 76.8139 115.293 77.2068 115.581 77.4986C115.869 77.7905 116.261 77.9578 116.672 77.9645H158.948C159.154 77.968 159.358 77.9311 159.55 77.8559C159.741 77.7807 159.916 77.6686 160.064 77.5262C160.212 77.3837 160.33 77.2135 160.412 77.0255C160.494 76.8374 160.537 76.6351 160.541 76.4302C160.544 76.2252 160.507 76.0216 160.431 75.831C160.356 75.6403 160.243 75.4664 160.1 75.3192C159.957 75.1719 159.786 75.0542 159.597 74.9728C159.409 74.8914 159.205 74.8478 159 74.8446C158.983 74.8443 158.965 74.8443 158.948 74.8446H116.672Z" fill="white"/>
<path d="M321.995 179.929C323.598 179.318 323.315 174.697 321.363 169.607C319.411 164.518 316.528 160.887 314.925 161.498C313.321 162.108 313.604 166.729 315.556 171.819C317.509 176.909 320.391 180.54 321.995 179.929Z" fill="#064663"/>
<path d="M335.797 209.213C346.592 207.468 353.923 197.333 352.172 186.576C350.42 175.819 340.248 168.514 329.453 170.26C318.657 172.006 311.326 182.141 313.078 192.897C314.83 203.654 325.001 210.959 335.797 209.213Z" fill="#064663"/>
<path d="M341.648 205.222H335.633L336.81 218.084L341.659 216.772L341.648 205.222Z" fill="#064663"/>
<path d="M328.534 205.256H322.518L323.695 218.118L328.325 216.772L328.534 205.256Z" fill="#064663"/>
<path d="M323.524 218.722C326.285 218.521 328.462 217.521 328.386 216.489C328.311 215.458 326.011 214.784 323.249 214.985C320.488 215.187 318.311 216.186 318.387 217.218C318.462 218.25 320.762 218.923 323.524 218.722Z" fill="#064663"/>
<path d="M332.124 191.485C335.861 191.485 338.891 188.466 338.891 184.741C338.891 181.017 335.861 177.998 332.124 177.998C328.386 177.998 325.356 181.017 325.356 184.741C325.356 188.466 328.386 191.485 332.124 191.485Z" fill="white"/>
<path d="M332.123 186.989C333.369 186.989 334.379 185.983 334.379 184.741C334.379 183.5 333.369 182.494 332.123 182.494C330.877 182.494 329.867 183.5 329.867 184.741C329.867 185.983 330.877 186.989 332.123 186.989Z" fill="#064663"/>
<path d="M356.05 177.84C359.299 173.457 360.813 169.08 359.432 168.064C358.051 167.048 354.298 169.777 351.049 174.16C347.8 178.542 346.286 182.919 347.667 183.935C349.048 184.952 352.801 182.223 356.05 177.84Z" fill="#064663"/>
<path d="M322.963 199.911C322.963 198.319 327.076 195.176 331.64 195.176C336.204 195.176 340.483 199.657 340.483 201.249C340.483 202.84 336.204 200.94 331.64 200.94C327.076 200.94 322.963 201.502 322.963 199.911Z" fill="white"/>
<path d="M388.154 173.431L279.758 158.458C278.912 158.34 278.149 157.893 277.634 157.215C277.119 156.537 276.895 155.683 277.011 154.841L289.197 67.2544C289.315 66.4123 289.764 65.6513 290.444 65.1383C291.125 64.6254 291.982 64.4023 292.827 64.5181L401.223 79.4911C402.068 79.6088 402.832 80.0557 403.347 80.7338C403.862 81.4119 404.085 82.2658 403.969 83.1082L391.784 170.694C391.665 171.537 391.217 172.298 390.536 172.81C389.856 173.323 388.999 173.547 388.154 173.431Z" fill="#ECB365"/>
<path d="M349.321 146.096L293.982 138.452C293.913 138.443 293.844 138.428 293.778 138.407L326.235 96.8497C326.434 96.5905 326.699 96.3884 327.001 96.2643C327.304 96.1402 327.635 96.0984 327.959 96.1432C328.284 96.188 328.59 96.3178 328.848 96.5193C329.105 96.7209 329.305 96.987 329.425 97.2904L342.773 130.031L343.413 131.598L349.321 146.096Z" fill="white"/>
<path opacity="0.2" d="M349.321 146.096L330.427 143.486L341.57 131.343L342.372 130.469L342.773 130.031L343.413 131.598L349.321 146.096Z" fill="black"/>
<path d="M380.134 150.353L332.27 143.741L343.413 131.598L344.215 130.723L358.735 114.898C358.986 114.661 359.284 114.478 359.61 114.363C359.937 114.247 360.284 114.202 360.629 114.229C360.974 114.255 361.31 114.354 361.614 114.519C361.918 114.683 362.184 114.91 362.395 115.184C362.448 115.261 362.496 115.341 362.539 115.424L380.134 150.353Z" fill="white"/>
<path d="M349.994 110.958C354.565 110.958 358.271 107.265 358.271 102.711C358.271 98.1563 354.565 94.4641 349.994 94.4641C345.423 94.4641 341.718 98.1563 341.718 102.711C341.718 107.265 345.423 110.958 349.994 110.958Z" fill="white"/>
<path d="M304.696 72.6351L294.676 71.251L293.287 81.235L303.307 82.6191L304.696 72.6351Z" fill="#064663"/>
<path d="M351.834 171.387C353.433 164.252 348.322 157.042 340.418 155.283C332.514 153.525 324.81 157.883 323.211 165.019C321.612 172.154 326.85 174.785 334.754 176.544C342.658 178.303 350.235 178.522 351.834 171.387Z" fill="#F2F2F2"/>
<path d="M336.717 218.69C339.478 218.489 341.655 217.489 341.579 216.458C341.504 215.426 339.204 214.752 336.442 214.954C333.681 215.155 331.504 216.154 331.579 217.186C331.655 218.218 333.955 218.891 336.717 218.69Z" fill="#064663"/>
</g>
<defs>
<clipPath id="clip0_31_914">
<rect width="404" height="253" fill="white"/>
</clipPath>
</defs>
</svg>
