<svg width="404" height="253
" viewBox="0 0 366 262" fill="none" xmlns="http://www.w3.org/2000/svg">
<g clip-path="url(#clip0_31_1143)">
<path d="M107.707 188.47H106.771V191.28H107.707V188.47Z" fill="#E5E5E4"/>
<path d="M107.707 251.157H106.771V245.171H107.707V251.157ZM107.707 239.181H106.771V233.195H107.707V239.181ZM107.707 227.204H106.771V221.218H107.707V227.204ZM107.707 215.233H106.771V209.242H107.707V215.233ZM107.707 203.256H106.771V197.266H107.707V203.256Z" fill="#E5E5E4"/>
<path d="M107.707 257.148H106.771V259.958H107.707V257.148Z" fill="#E5E5E4"/>
<path d="M210.213 188.47H209.277V191.28H210.213V188.47Z" fill="#E5E5E4"/>
<path d="M210.213 251.157H209.277V245.171H210.213V251.157ZM210.213 239.181H209.277V233.195H210.213V239.181ZM210.213 227.204H209.277V221.218H210.213V227.204ZM210.213 215.233H209.277V209.242H210.213V215.233ZM210.213 203.256H209.277V197.266H210.213V203.256Z" fill="#E5E5E4"/>
<path d="M210.213 257.148H209.277V259.958H210.213V257.148Z" fill="#E5E5E4"/>
<path d="M261.921 133.496H260.985V136.307H261.921V133.496Z" fill="#E5E5E4"/>
<path d="M261.921 251.391H260.985V245.635H261.921V251.391ZM261.921 239.883H260.985V234.127H261.921V239.883ZM261.921 228.375H260.985V222.619H261.921V228.375ZM261.921 216.863H260.985V211.111H261.921V216.863ZM261.921 205.355H260.985V199.603H261.921V205.355ZM261.921 193.847H260.985V188.095H261.921V193.847ZM261.921 182.339H260.985V176.582H261.921V182.339ZM261.921 170.831H260.985V165.074H261.921V170.831ZM261.921 159.323H260.985V153.566H261.921V159.323ZM261.921 147.815H260.985V142.058H261.921V147.815Z" fill="#E5E5E4"/>
<path d="M261.921 257.148H260.985V259.958H261.921V257.148Z" fill="#E5E5E4"/>
<path d="M313.109 111.014H312.172V113.825H313.109V111.014Z" fill="#E5E5E4"/>
<path d="M313.113 251.41H312.177V245.677H313.113V251.41ZM313.113 239.944H312.177V234.221H313.113V239.944ZM313.113 228.478H312.177V222.745H313.113V228.478ZM313.113 217.012H312.177V211.27H313.113V217.012ZM313.113 205.547H312.177V199.814H313.113V205.547ZM313.113 194.081H312.177V188.348H313.113V194.081ZM313.113 182.615H312.177V176.882H313.113V182.615ZM313.113 171.149H312.177V165.416H313.113V171.149ZM313.113 159.683H312.177V153.95H313.113V159.683ZM313.113 148.217H312.177V142.485H313.113V148.217ZM313.113 136.752H312.177V131.019H313.113V136.752ZM313.113 125.286H312.177V119.553H313.113V125.286Z" fill="#E5E5E4"/>
<path d="M313.109 257.148H312.172V259.958H313.109V257.148Z" fill="#E5E5E4"/>
<path d="M159.194 150.826H158.258V153.637H159.194V150.826Z" fill="#E5E5E4"/>
<path d="M159.194 251.696H158.258V246.248H159.194V251.696ZM159.194 240.801H158.258V235.354H159.194V240.801ZM159.194 229.907H158.258V224.46H159.194V229.907ZM159.194 219.008H158.258V213.561H159.194V219.008ZM159.194 208.113H158.258V202.666H159.194V208.113ZM159.194 197.219H158.258V191.772H159.194V197.219ZM159.194 186.32H158.258V180.873H159.194V186.32ZM159.194 175.425H158.258V169.978H159.194V175.425ZM159.194 164.531H158.258V159.084H159.194V164.531Z" fill="#E5E5E4"/>
<path d="M159.194 257.148H158.258V259.958H159.194V257.148Z" fill="#E5E5E4"/>
<path d="M317.658 262L54.7732 261.316C54.5359 261.295 54.3166 261.18 54.1632 260.998C54.0097 260.815 53.9346 260.58 53.9541 260.342L54.3426 111.309C54.3223 111.19 54.3284 111.067 54.3604 110.95C54.3923 110.833 54.4494 110.725 54.5276 110.632C54.6058 110.54 54.7033 110.465 54.8132 110.414C54.9231 110.363 55.0428 110.337 55.164 110.337C55.2852 110.337 55.4049 110.363 55.5149 110.414C55.6248 110.465 55.7223 110.54 55.8005 110.632C55.8787 110.725 55.9357 110.833 55.9677 110.95C55.9997 111.067 56.0057 111.19 55.9855 111.309L55.6017 259.372L317.663 260.052C317.893 260.091 318.101 260.21 318.252 260.388C318.402 260.567 318.484 260.792 318.484 261.026C318.484 261.259 318.402 261.485 318.252 261.663C318.101 261.841 317.893 261.961 317.663 262H317.658Z" fill="#064663"/>
<path d="M359.306 9.42476L357.859 8.78516L313.222 109.916L314.669 110.555L359.306 9.42476Z" fill="#064663"/>
<path d="M210.167 189.776L158.642 151.154L107.819 189.247L106.654 187.697L158.642 148.733L209.923 187.168L260.882 131.361L261.088 131.281L312.491 110.555L313.216 112.354L262.019 132.995L210.167 189.776Z" fill="#064663"/>
<path d="M107.239 194.292C110.452 194.292 113.057 191.685 113.057 188.47C113.057 185.254 110.452 182.648 107.239 182.648C104.025 182.648 101.421 185.254 101.421 188.47C101.421 191.685 104.025 194.292 107.239 194.292Z" fill="#EBB364"/>
<path d="M158.642 156.442C161.855 156.442 164.46 153.836 164.46 150.62C164.46 147.405 161.855 144.798 158.642 144.798C155.429 144.798 152.824 147.405 152.824 150.62C152.824 153.836 155.429 156.442 158.642 156.442Z" fill="#EBB364"/>
<path d="M210.045 194.292C213.258 194.292 215.863 191.685 215.863 188.47C215.863 185.254 213.258 182.648 210.045 182.648C206.832 182.648 204.227 185.254 204.227 188.47C204.227 191.685 206.832 194.292 210.045 194.292Z" fill="#E5E5E4"/>
<path d="M208.641 214.9C211.854 214.9 214.459 212.294 214.459 209.078C214.459 205.863 211.854 203.256 208.641 203.256C205.427 203.256 202.823 205.863 202.823 209.078C202.823 212.294 205.427 214.9 208.641 214.9Z" fill="#EBB364"/>
<path d="M261.453 138.002C264.666 138.002 267.271 135.396 267.271 132.18C267.271 128.965 264.666 126.358 261.453 126.358C258.239 126.358 255.635 128.965 255.635 132.18C255.635 135.396 258.239 138.002 261.453 138.002Z" fill="#EBB364"/>
<path d="M312.856 116.649C316.069 116.649 318.674 114.042 318.674 110.827C318.674 107.612 316.069 105.005 312.856 105.005C309.642 105.005 307.038 107.612 307.038 110.827C307.038 114.042 309.642 116.649 312.856 116.649Z" fill="#EBB364"/>
<path d="M360.182 11.6438C363.395 11.6438 366 9.03726 366 5.82191C366 2.60656 363.395 0 360.182 0C356.969 0 354.364 2.60656 354.364 5.82191C354.364 9.03726 356.969 11.6438 360.182 11.6438Z" fill="#EBB364"/>
<path d="M53.5018 218.97C55.4891 213.768 55.7769 209.045 54.1446 208.42C52.5123 207.796 49.578 211.507 47.5907 216.709C45.6034 221.911 45.3157 226.635 46.948 227.259C48.5803 227.883 51.5146 224.172 53.5018 218.97Z" fill="#064663"/>
<path d="M31.9128 253.237C43.0467 253.237 52.0724 244.205 52.0724 233.064C52.0724 221.923 43.0467 212.891 31.9128 212.891C20.7789 212.891 11.7532 221.923 11.7532 233.064C11.7532 244.205 20.7789 253.237 31.9128 253.237Z" fill="#064663"/>
<path d="M28.8517 248.895H22.7294V259.874H28.8517V248.895Z" fill="#064663"/>
<path d="M41.0962 248.895H34.9739V259.874H41.0962V248.895Z" fill="#064663"/>
<path d="M27.8313 261.916C30.649 261.916 32.9332 261.058 32.9332 260C32.9332 258.942 30.649 258.084 27.8313 258.084C25.0136 258.084 22.7294 258.942 22.7294 260C22.7294 261.058 25.0136 261.916 27.8313 261.916Z" fill="#064663"/>
<path d="M40.0806 261.663C42.8983 261.663 45.1825 260.805 45.1825 259.747C45.1825 258.689 42.8983 257.831 40.0806 257.831C37.2628 257.831 34.9786 258.689 34.9786 259.747C34.9786 260.805 37.2628 261.663 40.0806 261.663Z" fill="#064663"/>
<path d="M32.423 234.848C36.2282 234.848 39.313 231.762 39.313 227.954C39.313 224.146 36.2282 221.059 32.423 221.059C28.6178 221.059 25.5331 224.146 25.5331 227.954C25.5331 231.762 28.6178 234.848 32.423 234.848Z" fill="white"/>
<path d="M32.423 230.253C33.6922 230.253 34.7212 229.224 34.7212 227.954C34.7212 226.684 33.6922 225.654 32.423 225.654C31.1537 225.654 30.1248 226.684 30.1248 227.954C30.1248 229.224 31.1537 230.253 32.423 230.253Z" fill="#064663"/>
<path d="M12.3617 214.301C10.7328 207.008 15.9377 199.636 23.9838 197.837C32.0298 196.039 39.8746 200.498 41.4988 207.79C43.123 215.083 37.7917 217.776 29.7457 219.575C21.6996 221.373 13.9906 221.598 12.3617 214.301Z" fill="#E7E6E6"/>
<path d="M18.3175 228.005C19.0663 226.425 15.5965 223.21 10.5676 220.824C5.53875 218.437 0.855057 217.784 0.106319 219.364C-0.642419 220.944 2.82733 224.159 7.85621 226.545C12.8851 228.931 17.5688 229.585 18.3175 228.005Z" fill="#064663"/>
<path d="M22.0132 240.338C22.0132 242.314 27.0917 246.211 32.7319 246.211C38.3721 246.211 43.6519 240.651 43.6519 238.68C43.6519 236.708 38.3674 239.064 32.7319 239.064C27.0964 239.064 22.0132 238.366 22.0132 240.338Z" fill="white"/>
<path d="M184.095 250.024C195.229 250.024 204.255 240.992 204.255 229.851C204.255 218.709 195.229 209.678 184.095 209.678C172.961 209.678 163.936 218.709 163.936 229.851C163.936 240.992 172.961 250.024 184.095 250.024Z" fill="#064663"/>
<path d="M181.034 245.682H174.912V256.66H181.034V245.682Z" fill="#064663"/>
<path d="M193.279 245.682H187.156V256.66H193.279V245.682Z" fill="#064663"/>
<path d="M184.198 260.328C184.634 259.364 182.906 257.641 180.339 256.479C177.772 255.317 175.337 255.156 174.902 256.12C174.466 257.084 176.194 258.807 178.761 259.969C181.328 261.131 183.763 261.292 184.198 260.328Z" fill="#041C32"/>
<path d="M195.918 259.713C196.38 258.762 194.699 256.992 192.164 255.76C189.63 254.528 187.201 254.302 186.739 255.253C186.277 256.205 187.957 257.975 190.492 259.207C193.027 260.438 195.456 260.665 195.918 259.713Z" fill="#064663"/>
<path d="M164.544 211.092C162.915 203.8 168.12 196.427 176.166 194.629C184.212 192.83 192.052 197.289 193.681 204.582C195.31 211.874 189.974 214.568 181.928 216.366C173.882 218.165 166.173 218.385 164.544 211.092Z" fill="#EBB364"/>
<path d="M205.818 221.052C210.184 216.68 212.611 212.025 211.239 210.654C209.868 209.282 205.217 211.714 200.852 216.086C196.486 220.457 194.059 225.112 195.431 226.484C196.802 227.855 201.453 225.423 205.818 221.052Z" fill="#064663"/>
<path d="M169.067 238.407C170.673 232.413 170.45 227.144 168.569 226.64C166.689 226.136 163.863 230.586 162.257 236.581C160.651 242.575 160.874 247.843 162.755 248.348C164.635 248.852 167.462 244.402 169.067 238.407Z" fill="#064663"/>
</g>
<defs>
<clipPath id="clip0_31_1143">
<rect width="366" height="262" fill="white"/>
</clipPath>
</defs>
</svg>
