<svg width="404" height="253" viewBox="0 0 329 242" fill="none" xmlns="http://www.w3.org/2000/svg">
<rect width="329" height="242" fill="white"/>
<path d="M148.113 225.537C162.295 225.537 173.793 214.053 173.793 199.887C173.793 185.721 162.295 174.237 148.113 174.237C133.93 174.237 122.433 185.721 122.433 199.887C122.433 214.053 133.93 225.537 148.113 225.537Z" fill="#064663"/>
<path d="M127.855 171.983C127.469 162.487 135.662 154.443 146.156 154.018C156.65 153.592 165.47 160.945 165.856 170.441C166.242 179.937 158.948 182.094 148.454 182.52C137.96 182.946 128.241 181.479 127.855 171.983Z" fill="#ECB365"/>
<path d="M327.157 14.3629H1.80252C0.778359 14.3629 0 13.5445 0 12.5624V1.80047C0 0.818397 0.819325 0 1.80252 0H327.157C328.181 0 328.959 0.818397 328.959 1.80047V12.5215C328.959 13.5445 328.181 14.3629 327.157 14.3629Z" fill="#ECB365"/>
<path d="M10.5693 9.24788C11.9947 9.24788 13.1502 8.09369 13.1502 6.66993C13.1502 5.24617 11.9947 4.09198 10.5693 4.09198C9.1439 4.09198 7.9884 5.24617 7.9884 6.66993C7.9884 8.09369 9.1439 9.24788 10.5693 9.24788Z" fill="white"/>
<path d="M20.4012 9.24788C21.8266 9.24788 22.9821 8.09369 22.9821 6.66993C22.9821 5.24617 21.8266 4.09198 20.4012 4.09198C18.9758 4.09198 17.8203 5.24617 17.8203 6.66993C17.8203 8.09369 18.9758 9.24788 20.4012 9.24788Z" fill="white"/>
<path d="M30.2331 9.24788C31.6585 9.24788 32.814 8.09369 32.814 6.66993C32.814 5.24617 31.6585 4.09198 30.2331 4.09198C28.8077 4.09198 27.6522 5.24617 27.6522 6.66993C27.6522 8.09369 28.8077 9.24788 30.2331 9.24788Z" fill="white"/>
<path d="M317.529 4.86946H306.223C305.772 4.86946 305.403 4.50118 305.403 4.05106C305.403 3.60094 305.772 3.23267 306.223 3.23267H317.529C317.98 3.23267 318.349 3.60094 318.349 4.05106C318.39 4.50118 318.021 4.86946 317.529 4.86946Z" fill="white"/>
<path d="M317.529 8.02028H306.223C305.772 8.02028 305.403 7.652 305.403 7.20188C305.403 6.75176 305.772 6.38348 306.223 6.38348H317.529C317.98 6.38348 318.349 6.75176 318.349 7.20188C318.39 7.652 318.021 8.02028 317.529 8.02028Z" fill="white"/>
<path d="M317.529 11.1302H306.223C305.772 11.1302 305.403 10.7619 305.403 10.3118C305.403 9.86169 305.772 9.49341 306.223 9.49341H317.529C317.98 9.49341 318.349 9.86169 318.349 10.3118C318.39 10.7619 318.021 11.1302 317.529 11.1302Z" fill="white"/>
<path d="M99.8348 209.632C97.0901 208.978 95.2466 206.441 95.4924 203.617C95.4924 203.494 95.6153 203.413 95.7382 203.413C95.8611 203.413 95.943 203.535 95.943 203.617C95.7382 206.236 97.4588 208.568 99.9987 209.182C100.204 209.264 100.081 209.673 99.8348 209.632Z" fill="white"/>
<path d="M101.637 221.213C104.013 219.781 105.775 217.53 106.553 214.87C106.635 214.625 107.045 214.747 106.963 214.993C106.144 217.775 104.3 220.108 101.801 221.581C101.596 221.745 101.391 221.335 101.637 221.213Z" fill="white"/>
<path d="M104.013 197.888C104.997 198.339 106.144 198.298 107.086 197.725C107.332 197.561 107.495 197.97 107.291 198.093C106.267 198.707 104.997 198.789 103.89 198.257C103.768 198.216 103.727 198.093 103.768 197.97C103.768 197.929 103.89 197.888 104.013 197.888Z" fill="white"/>
<path d="M118.188 217.366C116.426 215.197 116.467 212.047 118.311 209.96C118.474 209.755 118.802 210.042 118.638 210.246C116.918 212.21 116.877 215.116 118.515 217.121C118.72 217.325 118.351 217.571 118.188 217.366Z" fill="white"/>
<path d="M112.657 227.719C115.402 228.005 118.188 227.269 120.441 225.591C120.646 225.427 120.891 225.796 120.687 225.959C118.352 227.678 115.484 228.456 112.616 228.128C112.289 228.087 112.37 227.678 112.657 227.719Z" fill="white"/>
<path d="M106.635 74.6378H54.3213C50.962 74.6378 48.2173 71.8962 48.2173 68.5407V40.1015C48.2173 36.746 50.962 34.0044 54.3213 34.0044H106.635C109.994 34.0044 112.739 36.746 112.739 40.1015V68.5817C112.739 71.9371 109.994 74.6378 106.635 74.6378Z" fill="#E6E6E6"/>
<path d="M186.519 74.6378H134.205C130.846 74.6378 128.101 71.8962 128.101 68.5407V40.1015C128.101 36.746 130.846 34.0044 134.205 34.0044H186.519C189.879 34.0044 192.623 36.746 192.623 40.1015V68.5817C192.623 71.9371 189.879 74.6378 186.519 74.6378Z" fill="#ECB365"/>
<path d="M265.994 74.3514H214.049C210.689 74.3514 207.986 71.6507 207.986 68.2952V40.0605C207.986 36.7051 210.689 34.0044 214.049 34.0044H265.994C269.353 34.0044 272.057 36.7051 272.057 40.0605V68.3361C272.016 71.6507 269.312 74.3514 265.994 74.3514Z" fill="#E6E6E6"/>
<path d="M106.635 138.064H54.3213C50.962 138.064 48.2173 135.322 48.2173 131.967V103.527C48.2173 100.172 50.962 97.4302 54.3213 97.4302H106.635C109.994 97.4302 112.739 100.172 112.739 103.527V132.007C112.739 135.363 109.994 138.064 106.635 138.064Z" fill="#F2F2F2"/>
<path d="M186.519 138.064H134.205C130.846 138.064 128.101 135.322 128.101 131.967V103.527C128.101 100.172 130.846 97.4302 134.205 97.4302H186.519C189.879 97.4302 192.623 100.172 192.623 103.527V132.007C192.623 135.363 189.879 138.064 186.519 138.064Z" fill="#E6E6E6"/>
<path d="M190.206 143.301C195.365 143.301 199.547 139.124 199.547 133.972C199.547 128.819 195.365 124.642 190.206 124.642C185.048 124.642 180.866 128.819 180.866 133.972C180.866 139.124 185.048 143.301 190.206 143.301Z" fill="#ECB365"/>
<path d="M194.098 133.194H190.903V130.002C190.903 129.593 190.575 129.266 190.165 129.266C189.756 129.266 189.428 129.593 189.428 130.002V133.194H186.233C185.823 133.194 185.495 133.521 185.495 133.931C185.495 134.34 185.823 134.667 186.233 134.667H189.428V137.859C189.428 138.268 189.756 138.596 190.165 138.596C190.575 138.596 190.903 138.268 190.903 137.859V134.667H194.098C194.508 134.667 194.835 134.34 194.835 133.931C194.835 133.521 194.508 133.194 194.098 133.194Z" fill="white"/>
<path d="M271.32 81.5124C276.478 81.5124 280.66 77.3353 280.66 72.1826C280.66 67.03 276.478 62.8529 271.32 62.8529C266.161 62.8529 261.979 67.03 261.979 72.1826C261.979 77.3353 266.161 81.5124 271.32 81.5124Z" fill="#ECB365"/>
<path d="M275.211 71.4052H272.016V68.2134C272.016 67.8042 271.688 67.4769 271.279 67.4769C270.869 67.4769 270.541 67.8042 270.541 68.2134V71.4052H267.346C266.936 71.4052 266.608 71.7325 266.608 72.1417C266.608 72.5509 266.936 72.8783 267.346 72.8783H270.541V76.07C270.541 76.4792 270.869 76.8066 271.279 76.8066C271.688 76.8066 272.016 76.4792 272.016 76.07V72.8783H275.211C275.621 72.8783 275.949 72.5509 275.949 72.1417C275.949 71.7325 275.621 71.4052 275.211 71.4052Z" fill="white"/>
<path d="M110.322 80.6939C115.481 80.6939 119.662 76.5169 119.662 71.3642C119.662 66.2115 115.481 62.0345 110.322 62.0345C105.164 62.0345 100.982 66.2115 100.982 71.3642C100.982 76.5169 105.164 80.6939 110.322 80.6939Z" fill="#ECB365"/>
<path d="M114.214 70.5868H111.019V67.395C111.019 66.9858 110.691 66.6584 110.281 66.6584C109.871 66.6584 109.544 66.9858 109.544 67.395V70.5868H106.348C105.939 70.5868 105.611 70.9141 105.611 71.3233C105.611 71.7325 105.939 72.0599 106.348 72.0599H109.544V75.2516C109.544 75.6608 109.871 75.9882 110.281 75.9882C110.691 75.9882 111.019 75.6608 111.019 75.2516V72.0599H114.214C114.624 72.0599 114.951 71.7325 114.951 71.3233C114.951 70.9141 114.624 70.5868 114.214 70.5868Z" fill="white"/>
<path d="M118.565 135.872C118.931 130.732 115.056 126.27 109.91 125.904C104.765 125.539 100.297 129.41 99.931 134.549C99.5654 139.689 103.44 144.152 108.586 144.517C113.731 144.882 118.199 141.012 118.565 135.872Z" fill="#E6E6E6"/>
<path d="M266.404 138.105H214.09C210.73 138.105 207.986 135.363 207.986 132.007V103.527C207.986 100.172 210.73 97.4302 214.09 97.4302H266.404C269.763 97.4302 272.508 100.172 272.508 103.527V132.007C272.508 135.363 269.763 138.064 266.404 138.105Z" fill="#F2F2F2"/>
<path d="M278.328 135.875C278.693 130.735 274.819 126.272 269.673 125.907C264.527 125.542 260.06 129.412 259.694 134.552C259.328 139.692 263.203 144.155 268.349 144.52C273.494 144.885 277.962 141.015 278.328 135.875Z" fill="#E6E6E6"/>
<path d="M277.464 224.323L255.998 209.141C263.249 202.103 269.804 192.078 276.112 180.743L297.579 195.924C289.017 205.622 281.766 215.157 277.464 224.323Z" fill="#ECB365"/>
<path d="M277.505 208.159C281.012 208.159 283.855 205.32 283.855 201.817C283.855 198.314 281.012 195.474 277.505 195.474C273.999 195.474 271.156 198.314 271.156 201.817C271.156 205.32 273.999 208.159 277.505 208.159Z" fill="white"/>
<path d="M252.926 205.663C250.222 201.735 248.829 197.029 248.993 192.241C248.993 191.996 248.829 191.832 248.624 191.75V190.932H243.954V191.75H243.872C243.626 191.75 243.38 191.955 243.38 192.241V192.282C243.749 197.397 242.52 201.98 239.653 206.031C239.489 206.277 239.407 206.563 239.407 206.809L239.898 222.563C239.939 223.3 240.513 223.872 241.25 223.872H251.779C252.516 223.872 253.13 223.259 253.13 222.522L253.335 207.259C253.376 206.645 253.212 206.113 252.926 205.663Z" fill="#ECB365"/>
<path d="M251.246 210.86H242.07C241.537 210.86 241.127 211.269 241.127 211.801C241.127 211.842 241.127 211.883 241.127 211.924L242.52 220.926H250.468L252.147 211.965C252.229 211.474 251.901 210.983 251.41 210.86C251.369 210.86 251.287 210.86 251.246 210.86Z" fill="white"/>
<path d="M235.925 224.282H209.624C211.468 214.338 211.058 202.349 209.624 189.459H235.925C234.532 202.349 234.122 214.338 235.925 224.282Z" fill="#ECB365"/>
<path d="M222.938 212.251C226.445 212.251 229.288 209.412 229.288 205.909C229.288 202.406 226.445 199.566 222.938 199.566C219.431 199.566 216.589 202.406 216.589 205.909C216.589 209.412 219.431 212.251 222.938 212.251Z" fill="white"/>
<path d="M290.328 226.573H206.798L189.1 143.056H174.025V139.291H192.132L209.829 222.849H290.328V226.573Z" fill="#064663"/>
<path d="M219.046 241.836C223.481 241.836 227.076 238.245 227.076 233.816C227.076 229.386 223.481 225.796 219.046 225.796C214.612 225.796 211.017 229.386 211.017 233.816C211.017 238.245 214.612 241.836 219.046 241.836Z" fill="#064663"/>
<path d="M279.062 241.836C283.497 241.836 287.092 238.245 287.092 233.816C287.092 229.386 283.497 225.796 279.062 225.796C274.628 225.796 271.033 229.386 271.033 233.816C271.033 238.245 274.628 241.836 279.062 241.836Z" fill="#064663"/>
<path d="M223.348 224.568L213.926 154.636L214.991 154.472L224.372 224.404L223.348 224.568Z" fill="#064663"/>
<path d="M275.539 224.036L274.474 223.872L283.609 154.472L284.674 154.636L275.539 224.036Z" fill="#064663"/>
<path d="M198.68 173.312L198.678 174.376L302.445 174.627L302.448 173.563L198.68 173.312Z" fill="#064663"/>
<path d="M295.123 206.38L203.973 207.002L203.98 208.066L295.13 207.444L295.123 206.38Z" fill="#064663"/>
<path d="M175.622 143.874C178.88 143.874 181.521 142.427 181.521 140.641C181.521 138.856 178.88 137.409 175.622 137.409C172.364 137.409 169.723 138.856 169.723 140.641C169.723 142.427 172.364 143.874 175.622 143.874Z" fill="#064663"/>
<path d="M288.672 225.018H207.395L193.057 154.227H302.15C304.281 154.227 306.001 155.945 306.001 158.073C306.001 158.278 306.001 158.483 305.96 158.687L292.482 221.786C292.195 223.627 290.598 225.018 288.672 225.018ZM208.297 223.954H288.672C290.024 223.954 291.212 222.972 291.417 221.622L304.854 158.523C305.1 157.009 304.076 155.577 302.519 155.332C302.396 155.291 302.232 155.291 302.068 155.291H194.368L208.297 223.954Z" fill="#064663"/>
<path d="M250.14 154.677H249.075V224.609H250.14V154.677Z" fill="#064663"/>
<path d="M152.208 143.725C166.346 142.595 176.891 130.231 175.761 116.11C174.632 101.989 162.256 91.4577 148.118 92.5884C133.981 93.719 123.436 106.083 124.565 120.204C125.694 134.325 138.071 144.856 152.208 143.725Z" fill="#064663"/>
<path d="M144.282 137.803L136.519 137.031L135.133 150.924L142.896 151.696L144.282 137.803Z" fill="#064663"/>
<path d="M139.774 220.551L131.993 220L131 233.927L138.782 234.478L139.774 220.551Z" fill="#064663"/>
<path d="M159.808 139.346L152.045 138.574L150.659 152.467L158.422 153.239L159.808 139.346Z" fill="#064663"/>
<path d="M155.146 221.141L147.351 220.816L146.763 234.765L154.558 235.09L155.146 221.141Z" fill="#064663"/>
<path d="M161.292 158.256C162.078 157.163 160.351 154.582 157.435 152.49C154.519 150.398 151.518 149.588 150.732 150.68C149.947 151.772 151.674 154.354 154.59 156.446C157.506 158.538 160.507 159.348 161.292 158.256Z" fill="#064663"/>
<path d="M159.225 237.717C159.467 236.393 156.8 234.801 153.269 234.16C149.738 233.519 146.679 234.073 146.438 235.397C146.196 236.72 148.863 238.313 152.394 238.953C155.925 239.594 158.983 239.04 159.225 237.717Z" fill="#064663"/>
<path d="M146.09 156.744C146.875 155.652 145.148 153.071 142.232 150.979C139.316 148.887 136.315 148.076 135.53 149.169C134.744 150.261 136.471 152.843 139.387 154.935C142.303 157.026 145.304 157.837 146.09 156.744Z" fill="#064663"/>
<path d="M143.223 236.039C143.499 234.722 140.875 233.061 137.362 232.327C133.849 231.594 130.777 232.068 130.5 233.384C130.224 234.701 132.848 236.363 136.361 237.096C139.874 237.829 142.946 237.356 143.223 236.039Z" fill="#064663"/>
<path d="M152.154 120.498C156.986 120.111 160.59 115.886 160.204 111.06C159.818 106.233 155.588 102.634 150.756 103.021C145.925 103.407 142.321 107.633 142.707 112.459C143.093 117.285 147.322 120.884 152.154 120.498Z" fill="white"/>
<path d="M149.911 202.38C154.758 202.38 158.687 198.455 158.687 193.613C158.687 188.771 154.758 184.847 149.911 184.847C145.063 184.847 141.134 188.771 141.134 193.613C141.134 198.455 145.063 202.38 149.911 202.38Z" fill="white"/>
<path d="M156.382 115.059C157.993 114.93 159.194 113.522 159.065 111.913C158.937 110.304 157.527 109.104 155.916 109.233C154.306 109.362 153.104 110.771 153.233 112.379C153.362 113.988 154.772 115.188 156.382 115.059Z" fill="#064663"/>
<path d="M149.926 189.844C151.541 189.844 152.851 188.536 152.851 186.922C152.851 185.308 151.541 184 149.926 184C148.31 184 147 185.308 147 186.922C147 188.536 148.31 189.844 149.926 189.844Z" fill="#064663"/>
<path d="M127.745 91.956C126.603 82.521 134.13 73.8502 144.556 72.5892C154.982 71.3282 164.36 77.9546 165.502 87.3896C166.644 96.8247 159.545 99.5569 149.119 100.818C138.693 102.079 128.887 101.391 127.745 91.956Z" fill="#ECB365"/>
<path d="M175.443 128.625C180.658 133.429 186.107 135.997 187.613 134.361C189.118 132.725 186.111 127.504 180.896 122.699C175.681 117.895 170.233 115.326 168.727 116.963C167.221 118.599 170.228 123.82 175.443 128.625Z" fill="#064663"/>
<path d="M175.101 177.108C178.398 170.83 179.474 164.903 177.505 163.87C175.536 162.837 171.267 167.089 167.97 173.367C164.673 179.645 163.596 185.571 165.566 186.604C167.535 187.637 171.804 183.385 175.101 177.108Z" fill="#064663"/>
<path d="M119.694 102.456C125.048 107.106 130.569 109.513 132.026 107.833C133.484 106.154 130.325 101.023 124.971 96.3733C119.617 91.7238 114.096 89.3163 112.639 90.996C111.181 92.6757 114.34 97.8066 119.694 102.456Z" fill="#064663"/>
<path d="M119.262 176.788C121.616 183.477 125.224 188.3 127.321 187.561C129.418 186.822 129.21 180.8 126.857 174.111C124.503 167.422 120.895 162.599 118.797 163.338C116.7 164.078 116.908 170.099 119.262 176.788Z" fill="#064663"/>
<path d="M143.939 128.795C143.785 130.338 144.25 131.878 145.233 133.077C146.216 134.276 147.636 135.036 149.18 135.19C150.725 135.343 152.267 134.878 153.467 133.896C154.668 132.913 155.429 131.495 155.583 129.953C155.904 126.741 153.363 125.817 150.148 125.497C146.932 125.177 144.259 125.583 143.939 128.795Z" fill="white"/>
</svg>
