<svg width="404" height="253" viewBox="0 0 334 226" fill="none" xmlns="http://www.w3.org/2000/svg">
<g clip-path="url(#clip0_31_1059)">
<path opacity="0.4" d="M226.324 140.411C240.103 140.411 251.273 129.254 251.273 115.491C251.273 101.728 240.103 90.5708 226.324 90.5708C212.545 90.5708 201.375 101.728 201.375 115.491C201.375 129.254 212.545 140.411 226.324 140.411Z" fill="#ECB365"/>
<path d="M226.893 149.973H87.7668V187.636H226.893V149.973Z" fill="#064663"/>
<path d="M217.982 56.6595L212.427 59.2857L217.344 55.6135C216.545 54.3677 215.647 53.1878 214.659 52.0851L190.567 58.0665L212.329 49.7745C211.335 48.8981 210.279 48.094 209.169 47.3685L172.458 53.2749C168.56 58.1435 166.435 64.191 166.432 70.4249H221.692C221.69 65.5902 220.41 60.8418 217.982 56.6595Z" fill="#F2F2F2"/>
<path d="M222.383 16.2977C200.3 5.53973 176.048 -0.0347694 151.479 -2.16537e-05C101.475 -2.16537e-05 56.7684 22.6476 27.0743 58.2318C77.9226 47.1034 166.454 27.8395 222.383 16.2977Z" fill="#F2F2F2"/>
<path d="M193.693 70.4248L174.883 42.5179C174.883 42.5179 203.369 52.4509 200.136 70.4248H193.693Z" fill="#064663"/>
<path d="M194.431 70.4248L213.241 42.5179C213.241 42.5179 184.755 52.4509 187.988 70.4248H194.431Z" fill="#ECB365"/>
<path d="M227.056 225.949H87.6042V18.1505H227.056V225.949ZM88.2544 225.3H226.406V18.7999H88.2544V225.3Z" fill="#2F2E41"/>
<path d="M226.893 23.0797H88.0918V23.729H226.893V23.0797Z" fill="#2F2E41"/>
<path d="M91.6676 22.0468C92.3857 22.0468 92.9678 21.4653 92.9678 20.748C92.9678 20.0307 92.3857 19.4493 91.6676 19.4493C90.9495 19.4493 90.3673 20.0307 90.3673 20.748C90.3673 21.4653 90.9495 22.0468 91.6676 22.0468Z" fill="#ECB365"/>
<path d="M95.2432 22.0468C95.9613 22.0468 96.5435 21.4653 96.5435 20.748C96.5435 20.0307 95.9613 19.4493 95.2432 19.4493C94.5251 19.4493 93.943 20.0307 93.943 20.748C93.943 21.4653 94.5251 22.0468 95.2432 22.0468Z" fill="#ECB365"/>
<path d="M98.8189 22.0468C99.537 22.0468 100.119 21.4653 100.119 20.748C100.119 20.0307 99.537 19.4493 98.8189 19.4493C98.1008 19.4493 97.5187 20.0307 97.5187 20.748C97.5187 21.4653 98.1008 22.0468 98.8189 22.0468Z" fill="#ECB365"/>
<path d="M98.8189 27.5664H92.9678V30.8133H98.8189V27.5664Z" fill="#ECB365"/>
<path d="M121.573 53.2166H92.9678V56.4634H121.573V53.2166Z" fill="#ECB365"/>
<path d="M194.712 30.8132L223.318 30.8132V27.5664L194.712 27.5664V30.8132Z" fill="#F2F2F2"/>
<path d="M141.077 58.7362H92.9678V60.6843H141.077V58.7362Z" fill="#F2F2F2"/>
<path d="M138.476 62.9571H92.9678V64.9052H138.476V62.9571Z" fill="#F2F2F2"/>
<path d="M126.124 67.178H92.9678V69.1261H126.124V67.178Z" fill="#F2F2F2"/>
<path d="M122.873 124.972H104.02V126.92H122.873V124.972Z" fill="#F2F2F2"/>
<path d="M121.854 129.193H104.02V131.141H121.854V129.193Z" fill="#F2F2F2"/>
<path d="M117.013 133.414H104.02V135.362H117.013V133.414Z" fill="#F2F2F2"/>
<path d="M166.757 124.972H147.903V126.92H166.757V124.972Z" fill="#F2F2F2"/>
<path d="M165.738 129.193H147.903V131.141H165.738V129.193Z" fill="#F2F2F2"/>
<path d="M160.897 133.414H147.903V135.362H160.897V133.414Z" fill="#F2F2F2"/>
<path d="M212.265 124.972H193.412V126.92H212.265V124.972Z" fill="#F2F2F2"/>
<path d="M211.246 129.193H193.412V131.141H211.246V129.193Z" fill="#F2F2F2"/>
<path d="M206.406 133.414H193.412V135.362H206.406V133.414Z" fill="#F2F2F2"/>
<path d="M161.881 198.676H133.275V201.922H161.881V198.676Z" fill="#ECB365"/>
<path d="M181.385 204.195H133.275V206.143H181.385V204.195Z" fill="#F2F2F2"/>
<path d="M178.784 208.416H133.275V210.364H178.784V208.416Z" fill="#F2F2F2"/>
<path d="M166.432 212.637H133.275V214.585H166.432V212.637Z" fill="#F2F2F2"/>
<path opacity="0.3" d="M214.704 88.2825H101.582V88.9319H214.704V88.2825Z" fill="#ECB365"/>
<path opacity="0.3" d="M125.474 99.6465H101.419V121.076H125.474V99.6465Z" fill="#ECB365"/>
<path d="M169.357 99.6465H145.303V121.076H169.357V99.6465Z" fill="#064663"/>
<path d="M214.866 99.6465H190.812V121.076H214.866V99.6465Z" fill="#064663"/>
<path d="M154.196 120.986L153.879 120.979C153.885 120.628 154.084 112.355 157.345 110.069L157.527 110.328C154.398 112.523 154.198 120.901 154.196 120.986Z" fill="#ECB365"/>
<path d="M159.022 109.964C159.899 109.964 160.609 109.255 160.609 108.379C160.609 107.504 159.899 106.794 159.022 106.794C158.146 106.794 157.436 107.504 157.436 108.379C157.436 109.255 158.146 109.964 159.022 109.964Z" fill="#ECB365"/>
<path d="M158.702 113.975C157.876 114.234 156.997 114.272 156.153 114.085C156.689 113.403 157.411 112.891 158.232 112.609C159.054 112.328 159.939 112.29 160.781 112.499C160.23 113.165 159.512 113.674 158.702 113.975Z" fill="#ECB365"/>
<path d="M199.705 120.986L199.387 120.979C199.394 120.628 199.593 112.355 202.853 110.069L203.036 110.328C199.906 112.523 199.706 120.901 199.705 120.986Z" fill="#ECB365"/>
<path d="M204.531 109.964C205.407 109.964 206.118 109.255 206.118 108.379C206.118 107.504 205.407 106.794 204.531 106.794C203.655 106.794 202.944 107.504 202.944 108.379C202.944 109.255 203.655 109.964 204.531 109.964Z" fill="#ECB365"/>
<path d="M204.21 113.975C203.385 114.234 202.506 114.272 201.661 114.085C202.198 113.403 202.92 112.891 203.741 112.609C204.563 112.328 205.448 112.29 206.29 112.499C205.738 113.165 205.021 113.674 204.21 113.975Z" fill="#ECB365"/>
<path d="M121.573 161.986H92.9678V165.233H121.573V161.986Z" fill="#ECB365"/>
<path d="M141.077 167.506H92.9678V169.454H141.077V167.506Z" fill="#F2F2F2"/>
<path d="M138.476 171.727H92.9678V173.675H138.476V171.727Z" fill="#F2F2F2"/>
<path d="M126.124 175.948H92.9678V177.896H126.124V175.948Z" fill="#F2F2F2"/>
<path opacity="0.4" d="M198.857 176.612C204.467 176.612 209.015 172.07 209.015 166.467C209.015 160.863 204.467 156.321 198.857 156.321C193.248 156.321 188.7 160.863 188.7 166.467C188.7 172.07 193.248 176.612 198.857 176.612Z" fill="#ECB365"/>
<path opacity="0.4" d="M180.059 178.43C183.994 178.43 187.184 175.243 187.184 171.312C187.184 167.382 183.994 164.195 180.059 164.195C176.123 164.195 172.933 167.382 172.933 171.312C172.933 175.243 176.123 178.43 180.059 178.43Z" fill="#ECB365"/>
<path d="M54.4479 214.747C68.6305 214.747 80.1278 203.263 80.1278 189.097C80.1278 174.931 68.6305 163.447 54.4479 163.447C40.2652 163.447 28.7679 174.931 28.7679 189.097C28.7679 203.263 40.2652 214.747 54.4479 214.747Z" fill="#064663"/>
<path d="M50.5472 209.228H42.7457V223.189H50.5472V209.228Z" fill="#064663"/>
<path d="M66.1501 209.228H58.3486V223.189H66.1501V209.228Z" fill="#064663"/>
<path d="M49.247 225.787C52.8375 225.787 55.7482 224.696 55.7482 223.352C55.7482 222.007 52.8375 220.916 49.247 220.916C45.6564 220.916 42.7457 222.007 42.7457 223.352C42.7457 224.696 45.6564 225.787 49.247 225.787Z" fill="#064663"/>
<path d="M64.8499 225.462C68.4404 225.462 71.3511 224.372 71.3511 223.027C71.3511 221.682 68.4404 220.592 64.8499 220.592C61.2593 220.592 58.3486 221.682 58.3486 223.027C58.3486 224.372 61.2593 225.462 64.8499 225.462Z" fill="#064663"/>
<path d="M55.0981 191.37C59.9453 191.37 63.8748 187.445 63.8748 182.604C63.8748 177.762 59.9453 173.837 55.0981 173.837C50.2509 173.837 46.3214 177.762 46.3214 182.604C46.3214 187.445 50.2509 191.37 55.0981 191.37Z" fill="white"/>
<path d="M55.098 181.63C56.7138 181.63 58.0236 180.321 58.0236 178.707C58.0236 177.094 56.7138 175.785 55.098 175.785C53.4823 175.785 52.1725 177.094 52.1725 178.707C52.1725 180.321 53.4823 181.63 55.098 181.63Z" fill="#064663"/>
<path d="M29.5375 165.243C27.4639 155.968 34.0922 146.595 44.3421 144.309C54.592 142.023 64.5821 147.689 66.6557 156.965C68.7292 166.24 61.9362 169.661 51.6863 171.947C41.4364 174.233 31.611 174.519 29.5375 165.243Z" fill="#ECB365"/>
<path d="M77.5344 162.411C80.5227 155.988 81.3086 150.021 79.2897 149.084C77.2708 148.147 73.2117 152.595 70.2234 159.018C67.2351 165.442 66.4492 171.408 68.4681 172.345C70.487 173.282 74.5461 168.835 77.5344 162.411Z" fill="#064663"/>
<path d="M32.7518 179.842C34.7194 178.802 33.625 172.884 30.3075 166.624C26.99 160.363 22.7056 156.132 20.7381 157.172C18.7705 158.212 19.8649 164.131 23.1824 170.391C26.4999 176.651 30.7843 180.882 32.7518 179.842Z" fill="#064663"/>
<path d="M271.17 181.989C273.247 181.189 272.863 175.183 270.313 168.574C267.763 161.965 264.011 157.255 261.934 158.055C259.857 158.855 260.241 164.861 262.791 171.47C265.341 178.079 269.093 182.789 271.17 181.989Z" fill="#064663"/>
<path d="M290.342 214.975C304.525 214.975 316.022 203.491 316.022 189.325C316.022 175.159 304.525 163.675 290.342 163.675C276.159 163.675 264.662 175.159 264.662 189.325C264.662 203.491 276.159 214.975 290.342 214.975Z" fill="#064663"/>
<path d="M294.337 223.405L302.139 223.383L302.1 209.422L294.298 209.443L294.337 223.405Z" fill="#064663"/>
<path d="M278.735 223.45L286.537 223.428L286.498 209.467L278.696 209.488L278.735 223.45Z" fill="#064663"/>
<path d="M295.646 226C299.236 225.99 302.144 224.891 302.14 223.547C302.137 222.202 299.223 221.12 295.632 221.13C292.042 221.14 289.134 222.238 289.138 223.583C289.142 224.928 292.055 226.01 295.646 226Z" fill="#064663"/>
<path d="M280.042 225.719C283.633 225.709 286.54 224.61 286.537 223.266C286.533 221.921 283.619 220.839 280.029 220.849C276.438 220.859 273.53 221.957 273.534 223.302C273.538 224.647 276.452 225.729 280.042 225.719Z" fill="#064663"/>
<path d="M289.674 191.6C294.521 191.6 298.45 187.675 298.45 182.833C298.45 177.992 294.521 174.067 289.674 174.067C284.826 174.067 280.897 177.992 280.897 182.833C280.897 187.675 284.826 191.6 289.674 191.6Z" fill="white"/>
<path d="M289.674 185.755C291.29 185.755 292.599 184.447 292.599 182.833C292.599 181.219 291.29 179.911 289.674 179.911C288.058 179.911 286.748 181.219 286.748 182.833C286.748 184.447 288.058 185.755 289.674 185.755Z" fill="#064663"/>
<path d="M315.186 165.402C317.233 156.12 310.579 146.767 300.322 144.509C290.066 142.252 280.092 147.946 278.044 157.227C275.997 166.508 282.799 169.91 293.056 172.168C303.312 174.425 313.138 174.683 315.186 165.402Z" fill="#ECB365"/>
<path d="M320.97 180.975C327.369 177.922 331.778 173.821 330.819 171.814C329.859 169.808 323.894 170.656 317.495 173.71C311.097 176.763 306.687 180.864 307.647 182.871C308.607 184.877 314.572 184.029 320.97 180.975Z" fill="#064663"/>
<path d="M302.982 198.543C302.989 201.054 296.531 206.029 289.35 206.049C282.169 206.069 275.416 199.02 275.409 196.51C275.402 194 282.144 196.978 289.325 196.958C296.506 196.938 302.975 196.033 302.982 198.543Z" fill="white"/>
<path opacity="0.4" d="M298.837 184.592C318.63 184.592 334.675 168.565 334.675 148.796C334.675 129.026 318.63 113 298.837 113C279.045 113 263 129.026 263 148.796C263 168.565 279.045 184.592 298.837 184.592Z" fill="#ECB365"/>
<path d="M61.8934 138.832C76.076 138.832 87.5733 127.348 87.5733 113.182C87.5733 99.0159 76.076 87.532 61.8934 87.532C47.7108 87.532 36.2135 99.0159 36.2135 113.182C36.2135 127.348 47.7108 138.832 61.8934 138.832Z" fill="#064663"/>
<path d="M54.4649 132.297L46.7882 130.908L44.2983 144.647L51.975 146.035L54.4649 132.297Z" fill="#064663"/>
<path d="M69.8184 135.073L62.1417 133.685L59.6518 147.423L67.3286 148.811L69.8184 135.073Z" fill="#064663"/>
<path d="M69.79 154.04C70.6602 153.014 69.1444 150.303 66.4044 147.986C63.6645 145.668 60.7379 144.621 59.8677 145.647C58.9975 146.673 60.5133 149.384 63.2533 151.702C65.9932 154.02 68.9198 155.067 69.79 154.04Z" fill="#064663"/>
<path d="M54.7564 151.322C55.6266 150.296 54.1108 147.585 51.3709 145.267C48.6309 142.949 45.7043 141.902 44.8341 142.929C43.964 143.955 45.4797 146.666 48.2197 148.984C50.9597 151.301 53.8863 152.348 54.7564 151.322Z" fill="#064663"/>
<path d="M63.6912 115.674C68.5385 115.674 72.4679 111.75 72.4679 106.908C72.4679 102.066 68.5385 98.1414 63.6912 98.1414C58.844 98.1414 54.9146 102.066 54.9146 106.908C54.9146 111.75 58.844 115.674 63.6912 115.674Z" fill="white"/>
<path d="M67.2984 106.688C68.9141 106.688 70.2239 105.379 70.2239 103.766C70.2239 102.152 68.9141 100.843 67.2984 100.843C65.6826 100.843 64.3728 102.152 64.3728 103.766C64.3728 105.379 65.6826 106.688 67.2984 106.688Z" fill="#064663"/>
<path d="M41.6355 85.2775C41.2494 75.7814 49.4431 67.7382 59.9368 67.3125C70.4304 66.8867 79.2503 74.2396 79.6365 83.7357C80.0226 93.2318 72.7282 95.3893 62.2345 95.8151C51.7409 96.2409 42.0217 94.7736 41.6355 85.2775Z" fill="#ECB365"/>
<path d="M86.5059 112.433C93.4179 110.851 98.6181 107.811 98.1207 105.644C97.6233 103.476 91.6168 103.002 84.7047 104.585C77.7927 106.167 72.5925 109.207 73.0899 111.374C73.5873 113.542 79.5938 114.016 86.5059 112.433Z" fill="#064663"/>
<path d="M36.0972 120.807C43.0092 119.224 48.2094 116.184 47.712 114.017C47.2146 111.849 41.2081 111.375 34.296 112.958C27.384 114.54 22.1838 117.58 22.6812 119.748C23.1786 121.915 29.1851 122.389 36.0972 120.807Z" fill="#064663"/>
<path d="M54.8404 123.29C54.564 124.816 54.9055 126.388 55.7898 127.662C56.6741 128.936 58.0287 129.806 59.5557 130.082C61.0827 130.359 62.657 130.017 63.9322 129.134C65.2074 128.251 66.0791 126.898 66.3555 125.373C66.9312 122.196 64.4726 121.073 61.2928 120.498C58.113 119.923 55.4161 120.114 54.8404 123.29Z" fill="white"/>
<path d="M122.359 92.3461L99.3179 85.4463L93.1568 105.973L116.198 112.873L122.359 92.3461Z" fill="#064663"/>
<path d="M101.701 108.438L101.399 108.341C101.507 108.006 104.075 100.139 107.856 98.8836L107.956 99.1844C104.328 100.389 101.727 108.357 101.701 108.438Z" fill="#ECB365"/>
<path d="M109.949 99.3314C110.825 99.3314 111.536 98.6218 111.536 97.7465C111.536 96.8712 110.825 96.1616 109.949 96.1616C109.073 96.1616 108.362 96.8712 108.362 97.7465C108.362 98.6218 109.073 99.3314 109.949 99.3314Z" fill="#ECB365"/>
<path d="M108.033 103.015C107.168 103.026 106.315 102.81 105.56 102.389C106.269 101.89 107.109 101.606 107.976 101.572C108.844 101.538 109.703 101.755 110.449 102.198C109.729 102.677 108.896 102.959 108.033 103.015Z" fill="#ECB365"/>
</g>
<defs>
<clipPath id="clip0_31_1059">
<rect width="334" height="226" fill="white"/>
</clipPath>
</defs>
</svg>
